<svg width="800" height="200" viewBox="0 0 800 200" fill="none" xmlns="http://www.w3.org/2000/svg">
  <defs>
    <linearGradient id="grad1" x1="0%" y1="0%" x2="100%" y2="100%">
      <stop offset="0%" style="stop-color:#1a2a6c;stop-opacity:1" />
      <stop offset="50%" style="stop-color:#b21f1f;stop-opacity:1" />
      <stop offset="100%" style="stop-color:#fdbb2d;stop-opacity:1" />
    </linearGradient>
    <clipPath id="clip">
      <rect width="800" height="200" rx="15" />
    </clipPath>
  </defs>
  <rect width="800" height="200" rx="15" fill="url(#grad1)" />
  
  <!-- Abstract Energy Landscape (Hills & Valleys) -->
  <path d="M0 150 Q 100 80, 200 150 T 400 150 T 600 100 T 800 150 V 200 H 0 Z" fill="white" fill-opacity="0.1" />
  <path d="M0 170 Q 150 100, 300 170 T 600 170 T 800 120 V 200 H 0 Z" fill="white" fill-opacity="0.05" />
  
  <text x="50%" y="55%" dominant-baseline="middle" text-anchor="middle" font-family="Arial, sans-serif" font-size="48" font-weight="bold" fill="white" style="text-shadow: 2px 2px 4px rgba(0,0,0,0.5);">
    Energy-Based Models
  </text>
  <text x="50%" y="75%" dominant-baseline="middle" text-anchor="middle" font-family="Arial, sans-serif" font-size="18" fill="white" fill-opacity="0.8">
    Research • Papers • Implementations
  </text>
  
  <!-- Subtle Grid Pattern -->
  <path d="M0 40 H 800 M0 80 H 800 M0 120 H 800 M0 160 H 800 M40 0 V 200 M80 0 V 200 M120 0 V 200 M160 0 V 200 M200 0 V 200 M240 0 V 200 M280 0 V 200 M320 0 V 200 M360 0 V 200 M400 0 V 200 M440 0 V 200 M480 0 V 200 M520 0 V 200 M560 0 V 200 M600 0 V 200 M640 0 V 200 M680 0 V 200 M720 0 V 200 M760 0 V 200" stroke="white" stroke-opacity="0.05" stroke-width="0.5" />
</svg>
